<svg id="Layer_1" data-name="Layer 1" xmlns="http://www.w3.org/2000/svg" viewBox="0 0 550.03 80.65"><defs><style>.cls-1{fill:#434141;}.cls-2{fill:#94bf3d;}.cls-3{fill:#bfbbb7;stroke:#bfbbb7;stroke-miterlimit:10;}</style></defs><title>dc-logo</title><path class="cls-1" d="M696.06,526.76V472.3H717a30.69,30.69,0,0,1,11.89,2.15,23.9,23.9,0,0,1,13.8,14.46,32.78,32.78,0,0,1-.19,21.79,24.47,24.47,0,0,1-5.56,8.59,24.94,24.94,0,0,1-8.67,5.52,31,31,0,0,1-11.28,2Zm33.22-27.3a18.61,18.61,0,0,0-.84-5.75,12.88,12.88,0,0,0-2.42-4.45,10.86,10.86,0,0,0-3.88-2.88,12.34,12.34,0,0,0-5.13-1h-6v28.38h6a12.1,12.1,0,0,0,5.21-1.07,10.87,10.87,0,0,0,3.87-3,13.11,13.11,0,0,0,2.38-4.52A19.16,19.16,0,0,0,729.28,499.46Z" transform="translate(-565.31 -472.3)"/><path class="cls-1" d="M789.88,513.73v13H751.06V472.31h38.13v13H766V493h19.79v12.12H766v8.59Z" transform="translate(-565.31 -472.3)"/><path class="cls-1" d="M839.27,485.35H823.62v41.42h-15V485.35H792.94v-13h46.33Z" transform="translate(-565.31 -472.3)"/><path class="cls-1" d="M883.53,513.74v13H844.71V472.31h38.12v13H859.68V493h19.78v12.12H859.67v8.59Z" transform="translate(-565.31 -472.3)"/><path class="cls-1" d="M890.51,526.78V472.32h25a16.53,16.53,0,0,1,7.37,1.65,19.16,19.16,0,0,1,5.79,4.29,20.22,20.22,0,0,1,3.8,6.06,18.23,18.23,0,0,1,1.38,6.87,19.42,19.42,0,0,1-2.08,8.86,18.14,18.14,0,0,1-5.75,6.71l12.27,20H921.42l-10.36-16.72h-5.6v16.72Zm15-29.76h9.44a3.3,3.3,0,0,0,2.57-1.54,6.86,6.86,0,0,0,1.19-4.29,6.2,6.2,0,0,0-1.38-4.34,3.85,3.85,0,0,0-2.76-1.49h-9Z" transform="translate(-565.31 -472.3)"/><path class="cls-1" d="M984.31,526.78V498.09l-9.13,20.18h-8l-9.13-20.18v28.69h-15V472.32h16.34l11.73,25.62L983,472.32h16.25v54.46Z" transform="translate(-565.31 -472.3)"/><path class="cls-1" d="M1003.34,526.78l20.32-54.45h12.13L1056,526.79h-15.8l-3.3-10.66h-14.5l-3.22,10.67Zm26.38-38.88-5.06,18.25h9.9Z" transform="translate(-565.31 -472.3)"/><path class="cls-1" d="M1075.06,500v26.77h-15V472.33h11.66L1093.62,500V472.33h15v54.46h-11.89Z" transform="translate(-565.31 -472.3)"/><path class="cls-1" d="M638.48,529.57H571.34a4.73,4.73,0,0,0-4.61,4.24,3.83,3.83,0,0,0,3.87,4.24h67.14c2.66,0,5-1.91,5.21-4.24S641.14,529.57,638.48,529.57Z" transform="translate(-565.31 -472.3)"/><path class="cls-1" d="M620.13,543.68h-50.2a4.73,4.73,0,0,0-4.61,4.24,3.83,3.83,0,0,0,3.87,4.24h50.2c2.67,0,5-1.91,5.22-4.24S622.8,543.68,620.13,543.68Z" transform="translate(-565.31 -472.3)"/><path class="cls-1" d="M652.45,515.37H572.82a4.71,4.71,0,0,0-4.6,4.24,3.81,3.81,0,0,0,3.86,4.23h79.63c2.66,0,5-1.9,5.21-4.23S655.11,515.37,652.45,515.37Z" transform="translate(-565.31 -472.3)"/><path class="cls-1" d="M575.09,495.53h67.14c2.66,0,5-1.9,5.21-4.23s-1.81-4.24-4.47-4.24H575.84a4.72,4.72,0,0,0-4.61,4.24A3.81,3.81,0,0,0,575.09,495.53Z" transform="translate(-565.31 -472.3)"/><path class="cls-1" d="M577.92,481.42h46c2.66,0,5-1.9,5.21-4.23s-1.81-4.24-4.47-4.24h-46a4.73,4.73,0,0,0-4.61,4.24A3.82,3.82,0,0,0,577.92,481.42Z" transform="translate(-565.31 -472.3)"/><path class="cls-1" d="M573.61,509.73h79.63c2.66,0,5-1.9,5.21-4.23s-1.81-4.24-4.47-4.24H574.35a4.71,4.71,0,0,0-4.6,4.24A3.81,3.81,0,0,0,573.61,509.73Z" transform="translate(-565.31 -472.3)"/><circle class="cls-2" cx="94.61" cy="18.99" r="4.33"/><circle class="cls-2" cx="74.85" cy="4.88" r="4.33"/><circle class="cls-2" cx="105.78" cy="33.19" r="4.33"/><circle class="cls-2" cx="90.28" cy="61.51" r="4.33"/><path class="cls-3" d="M890.51,543.45a8.43,8.43,0,0,1,.48-2.78,7.91,7.91,0,0,1,1.43-2.47,7.48,7.48,0,0,1,2.29-1.77,6.77,6.77,0,0,1,3.1-.69,6.37,6.37,0,0,1,3.53,1,5.77,5.77,0,0,1,2.15,2.43l-.91.52a4.72,4.72,0,0,0-1-1.35,5.29,5.29,0,0,0-1.2-.88,5,5,0,0,0-1.33-.49,6.53,6.53,0,0,0-1.37-.15,5.46,5.46,0,0,0-2.61.6,6.19,6.19,0,0,0-1.92,1.55,6.63,6.63,0,0,0-1.18,2.17,7.55,7.55,0,0,0-.41,2.42,7.19,7.19,0,0,0,.48,2.61,7.29,7.29,0,0,0,1.31,2.19,6.39,6.39,0,0,0,2,1.51,5.49,5.49,0,0,0,2.44.56,5.94,5.94,0,0,0,1.43-.17,6.4,6.4,0,0,0,1.41-.54,5.77,5.77,0,0,0,1.27-.95,5.19,5.19,0,0,0,1-1.36l.94.46a5.1,5.1,0,0,1-1.06,1.54,6.3,6.3,0,0,1-1.49,1.13,6.79,6.79,0,0,1-1.75.69,7.61,7.61,0,0,1-1.81.23,6.19,6.19,0,0,1-2.91-.7,7.57,7.57,0,0,1-2.27-1.82,8.47,8.47,0,0,1-2-5.44Z" transform="translate(-565.31 -472.3)"/><path class="cls-3" d="M914.85,551.38a6.36,6.36,0,0,1-2.94-.67,7.49,7.49,0,0,1-2.28-1.76,7.77,7.77,0,0,1-1.48-2.5,8.31,8.31,0,0,1-.53-2.9,8,8,0,0,1,.56-2.95,8.38,8.38,0,0,1,1.52-2.51,7.41,7.41,0,0,1,2.3-1.73,6.59,6.59,0,0,1,2.87-.64,6.24,6.24,0,0,1,2.93.69,7.28,7.28,0,0,1,2.28,1.79,8.34,8.34,0,0,1,1.47,2.52,8.23,8.23,0,0,1,.52,2.83A8.26,8.26,0,0,1,920,549a7.46,7.46,0,0,1-2.29,1.72A6.37,6.37,0,0,1,914.85,551.38Zm-6.12-7.83a7.38,7.38,0,0,0,.45,2.56,6.79,6.79,0,0,0,1.26,2.17,6.38,6.38,0,0,0,1.94,1.52,5.44,5.44,0,0,0,2.47.56,5.37,5.37,0,0,0,2.51-.59,6.25,6.25,0,0,0,1.92-1.55,7.18,7.18,0,0,0,1.24-2.19,7.28,7.28,0,0,0,.44-2.48,7.37,7.37,0,0,0-.46-2.55,7.26,7.26,0,0,0-1.27-2.18,6.35,6.35,0,0,0-1.94-1.51,5.3,5.3,0,0,0-2.44-.56,5.45,5.45,0,0,0-2.53.58,6,6,0,0,0-1.92,1.56,7.19,7.19,0,0,0-1.23,2.18A7.37,7.37,0,0,0,908.73,543.55Z" transform="translate(-565.31 -472.3)"/><path class="cls-3" d="M928.44,537.92v13.36h-1.11V535.83h.85L939,549.43V535.85h1.11v15.43h-1Z" transform="translate(-565.31 -472.3)"/><path class="cls-3" d="M955.41,538.4a5.4,5.4,0,0,0-4.24-1.68,5.16,5.16,0,0,0-3.3.86,2.87,2.87,0,0,0-1,2.32,2.71,2.71,0,0,0,.26,1.24,2.16,2.16,0,0,0,.81.84,6,6,0,0,0,1.42.58c.57.17,1.25.33,2,.49s1.6.37,2.27.58a6.53,6.53,0,0,1,1.7.79,3.31,3.31,0,0,1,1.09,1.18,3.59,3.59,0,0,1,.38,1.72,3.74,3.74,0,0,1-.4,1.78,3.62,3.62,0,0,1-1.13,1.27,5.32,5.32,0,0,1-1.74.77,9.32,9.32,0,0,1-8.37-2l.59-.89a7.11,7.11,0,0,0,2.39,1.62,8.12,8.12,0,0,0,3.18.6,5.79,5.79,0,0,0,3.16-.74,2.48,2.48,0,0,0,1.15-2.24,2.63,2.63,0,0,0-.3-1.3,2.54,2.54,0,0,0-.9-.92,6.44,6.44,0,0,0-1.51-.68c-.61-.18-1.31-.37-2.12-.54s-1.56-.36-2.19-.55a6.09,6.09,0,0,1-1.6-.75,2.94,2.94,0,0,1-1-1.07,3.41,3.41,0,0,1-.32-1.59,4.09,4.09,0,0,1,.4-1.85,4,4,0,0,1,1.12-1.36A4.83,4.83,0,0,1,949,536a8,8,0,0,1,2.22-.29,7.4,7.4,0,0,1,2.67.45,6.29,6.29,0,0,1,2.13,1.36Z" transform="translate(-565.31 -472.3)"/><path class="cls-3" d="M968,550.36a5.17,5.17,0,0,0,2.59-.59,4.61,4.61,0,0,0,1.65-1.54,6.62,6.62,0,0,0,.86-2.17,12.83,12.83,0,0,0,.25-2.46v-7.77h1.1v7.77a13,13,0,0,1-.33,3,7.09,7.09,0,0,1-1.1,2.48,5.42,5.42,0,0,1-2,1.71,6.57,6.57,0,0,1-3,.63,6.48,6.48,0,0,1-3.07-.66,5.56,5.56,0,0,1-2-1.76,7.15,7.15,0,0,1-1.07-2.49,13.64,13.64,0,0,1-.31-2.87v-7.77h1.11v7.77a12.19,12.19,0,0,0,.25,2.5,6.27,6.27,0,0,0,.86,2.16,4.61,4.61,0,0,0,1.63,1.53A5.23,5.23,0,0,0,968,550.36Z" transform="translate(-565.31 -472.3)"/><path class="cls-3" d="M980.49,551.28V535.83h1.11v14.44h9.22v1Z" transform="translate(-565.31 -472.3)"/><path class="cls-3" d="M1003.78,536.83h-5.65v14.45H997V536.83h-5.65v-1h12.41Z" transform="translate(-565.31 -472.3)"/><path class="cls-3" d="M1008.46,551.28V535.85h1.11v15.43Z" transform="translate(-565.31 -472.3)"/><path class="cls-3" d="M1016.94,537.92v13.36h-1.11V535.83h.85l10.83,13.6V535.85h1.11v15.43h-1Z" transform="translate(-565.31 -472.3)"/><path class="cls-3" d="M1046.3,548.88a6.76,6.76,0,0,1-5.17,2.5,6.38,6.38,0,0,1-2.91-.67,7.4,7.4,0,0,1-2.29-1.78,8.35,8.35,0,0,1-1.5-2.53,8,8,0,0,1-.55-2.87,8.14,8.14,0,0,1,.54-2.93,7.89,7.89,0,0,1,1.48-2.51,7.17,7.17,0,0,1,2.24-1.73,6.37,6.37,0,0,1,2.84-.64,8.4,8.4,0,0,1,2.1.25,6.24,6.24,0,0,1,1.64.7,5.58,5.58,0,0,1,1.25,1.07,6.9,6.9,0,0,1,.9,1.35l-.89.55a5.12,5.12,0,0,0-2.1-2.21,6.15,6.15,0,0,0-2.93-.68,5.2,5.2,0,0,0-2.47.58,6.12,6.12,0,0,0-1.88,1.55,6.84,6.84,0,0,0-1.19,2.17,7.67,7.67,0,0,0-.42,2.5,7.06,7.06,0,0,0,.48,2.6,7.13,7.13,0,0,0,1.32,2.17,6.41,6.41,0,0,0,2,1.49,5.41,5.41,0,0,0,2.43.55,5.78,5.78,0,0,0,2.67-.65,8.32,8.32,0,0,0,2.44-2.05v-3h-3.5v-.89h4.48v7.51h-1Z" transform="translate(-565.31 -472.3)"/><path class="cls-3" d="M1052.11,551.58a.51.51,0,0,0,.28-.08.36.36,0,0,0,.11-.31v-1.76h1v1.89a1,1,0,0,1-.41.87,1.77,1.77,0,0,1-.94.26Z" transform="translate(-565.31 -472.3)"/><path class="cls-3" d="M1067.12,551.28V535.83h1.11v14.44h9.23v1Z" transform="translate(-565.31 -472.3)"/><path class="cls-3" d="M1082.15,551.28V535.83h1.11v14.44h9.22v1Z" transform="translate(-565.31 -472.3)"/><path class="cls-3" d="M1096.16,543.45a8.19,8.19,0,0,1,.49-2.78,7.69,7.69,0,0,1,1.42-2.47,7.4,7.4,0,0,1,2.3-1.77,6.7,6.7,0,0,1,3.09-.69,6.35,6.35,0,0,1,3.53,1,5.77,5.77,0,0,1,2.15,2.43l-.91.52a4.72,4.72,0,0,0-1-1.35,5.46,5.46,0,0,0-1.19-.88,5.15,5.15,0,0,0-1.34-.49,6.53,6.53,0,0,0-1.37-.15,5.46,5.46,0,0,0-2.61.6,6.19,6.19,0,0,0-1.92,1.55,6.82,6.82,0,0,0-1.18,2.17,7.55,7.55,0,0,0-.41,2.42,7.41,7.41,0,0,0,.48,2.61,7.29,7.29,0,0,0,1.31,2.19,6.32,6.32,0,0,0,2,1.51,5.42,5.42,0,0,0,2.43.56,5.94,5.94,0,0,0,1.43-.17,6.4,6.4,0,0,0,1.41-.54,5.77,5.77,0,0,0,1.27-.95,5,5,0,0,0,1-1.36l.94.46a5.1,5.1,0,0,1-1.06,1.54,6.11,6.11,0,0,1-1.49,1.13,6.79,6.79,0,0,1-1.75.69,7.61,7.61,0,0,1-1.81.23,6.19,6.19,0,0,1-2.91-.7,7.57,7.57,0,0,1-2.27-1.82,8.38,8.38,0,0,1-1.49-2.54A8.12,8.12,0,0,1,1096.16,543.45Z" transform="translate(-565.31 -472.3)"/><path class="cls-3" d="M1113.88,551.28v-1.85h1v1.85Z" transform="translate(-565.31 -472.3)"/></svg>